<svg width="978" height="1024" viewBox="0 0 978 1024" fill="none" xmlns="http://www.w3.org/2000/svg">
<line y1="-1" x2="66.5743" y2="-1" transform="matrix(0.693105 -0.720837 -0.689697 -0.724098 841.953 208.266)" stroke="#F6E8CE" stroke-width="2"/>
<line y1="-1" x2="65.6336" y2="-1" transform="matrix(0.903907 -0.427728 -0.399389 -0.916782 900.105 293.574)" stroke="#F6E8CE" stroke-width="2"/>
<line y1="-1" x2="68.0521" y2="-1" transform="matrix(0.12779 -0.991801 -0.989824 -0.1423 656.424 118.012)" stroke="#F6E8CE" stroke-width="2"/>
<line y1="-1" x2="67.405" y2="-1" transform="matrix(0.455752 -0.890107 -0.872017 -0.489475 752.094 149.059)" stroke="#F6E8CE" stroke-width="2"/>
<line y1="-1" x2="135.48" y2="-1" transform="matrix(0.323809 -0.946123 0.935887 0.3523 706.322 128.594)" stroke="#F6E8CE" stroke-width="2"/>
<line y1="-1" x2="235.503" y2="-1" transform="matrix(0.595534 -0.803331 0.77679 0.62976 796.707 175.48)" stroke="#F6E8CE" stroke-width="2"/>
<line y1="-1" x2="131.951" y2="-1" transform="matrix(0.831124 -0.556087 0.523517 0.852015 866.791 244.922)" stroke="#F6E8CE" stroke-width="2"/>
<line y1="-1" x2="256.761" y2="-1" transform="matrix(0 -1 -1 0 597 115.762)" stroke="#E9C261" stroke-opacity="0.45" stroke-width="2"/>
<line y1="-1" x2="256.761" y2="-1" transform="matrix(0 -1 -1 0 597 1093)" stroke="#E9C261" stroke-opacity="0.45" stroke-width="2"/>
<line y1="-1" x2="146.144" y2="-1" transform="matrix(-0.289051 -0.957314 -0.959375 0.282135 492.807 136.934)" stroke="#E9C261" stroke-opacity="0.45" stroke-width="2"/>
<line y1="-1" x2="73.1977" y2="-1" transform="matrix(-0.464026 -0.885821 -0.890761 0.454471 436.025 155.273)" stroke="#E9C261" stroke-opacity="0.45" stroke-width="2"/>
<line y1="-1" x2="73.0064" y2="-1" transform="matrix(-0.121582 -0.992581 -0.992958 0.118463 544.066 120.82)" stroke="#E9C261" stroke-opacity="0.45" stroke-width="2"/>
<line y1="-1" x2="73.8126" y2="-1" transform="matrix(-0.921603 -0.388133 -0.396888 0.917867 272.783 318.953)" stroke="#E9C261" stroke-opacity="0.45" stroke-width="2"/>
<line y1="-1" x2="73.5027" y2="-1" transform="matrix(-0.729234 -0.684264 -0.693807 0.720161 333.855 224.492)" stroke="#E9C261" stroke-opacity="0.45" stroke-width="2"/>
<line y1="-1" x2="73.9348" y2="-1" transform="matrix(-0.986623 0.163019 0.167255 0.985914 239.355 527.383)" stroke="#E9C261" stroke-opacity="0.45" stroke-width="2"/>
<line y1="-1" x2="73.9264" y2="-1" transform="matrix(-0.982285 -0.187393 -0.192217 0.981352 239.207 415.328)" stroke="#E9C261" stroke-opacity="0.45" stroke-width="2"/>
<line y1="-1" x2="73.0304" y2="-1" transform="matrix(-0.200223 0.97975 0.980761 0.195214 534.061 829.797)" stroke="#E9C261" stroke-opacity="0.45" stroke-width="2"/>
<line y1="-1" x2="73.2634" y2="-1" transform="matrix(-0.532689 0.846311 0.852547 0.52265 427.943 789.941)" stroke="#E9C261" stroke-opacity="0.45" stroke-width="2"/>
<line y1="-1" x2="73.5558" y2="-1" transform="matrix(-0.765817 0.643059 0.65297 0.757384 333.326 720.574)" stroke="#E9C261" stroke-opacity="0.45" stroke-width="2"/>
<line y1="-1" x2="73.7991" y2="-1" transform="matrix(-0.914087 0.405518 0.414512 0.910044 266.918 629.703)" stroke="#E9C261" stroke-opacity="0.45" stroke-width="2"/>
<line y1="-1" x2="258.017" y2="-1" transform="matrix(-0.610713 -0.791852 -0.799549 0.600601 389.908 186.109)" stroke="#E9C261" stroke-opacity="0.45" stroke-width="2"/>
<line y1="-1" x2="147.345" y2="-1" transform="matrix(-0.840279 -0.542155 -0.552263 0.83367 309.857 259.695)" stroke="#E9C261" stroke-opacity="0.45" stroke-width="2"/>
<line y1="-1" x2="259.765" y2="-1" transform="matrix(-0.939919 -0.341399 -0.34942 0.936966 254.307 360.301)" stroke="#E9C261" stroke-opacity="0.45" stroke-width="2"/>
<line y1="-1" x2="146.269" y2="-1" transform="matrix(-0.386146 0.922438 -0.925991 -0.377546 474.258 813.336)" stroke="#E9C261" stroke-opacity="0.45" stroke-width="2"/>
<line y1="-1" x2="258.203" y2="-1" transform="matrix(-0.654215 0.756308 -0.764762 -0.644313 374.312 764.559)" stroke="#E9C261" stroke-opacity="0.45" stroke-width="2"/>
<line y1="-1" x2="147.441" y2="-1" transform="matrix(-0.869156 0.494539 -0.504423 -0.863457 298.562 686.66)" stroke="#E9C261" stroke-opacity="0.45" stroke-width="2"/>
<line y1="-1" x2="259.88" y2="-1" transform="matrix(-0.957393 0.288787 -0.295836 -0.955239 248.807 583.148)" stroke="#E9C261" stroke-opacity="0.45" stroke-width="2"/>
<line y1="-1" x2="147.922" y2="-1" transform="matrix(-0.999939 -0.0110446 -0.0113397 0.999936 232.416 465.602)" stroke="#E9C261" stroke-opacity="0.45" stroke-width="2"/>
</svg>
